<svg id="Layer_1" data-name="Layer 1" xmlns="http://www.w3.org/2000/svg" viewBox="0 0 1056.216 211.489"><defs><style>.cls-1{fill:#0033a0;}.cls-2{fill:#ff4612;}</style></defs><title>Artboard 2</title><path class="cls-1" d="M183.6,31.648c-.292,0-.573.009-.877.014l-139.837,0L72.046,57.83,26.1,174.432s103.817.033,113.435.033c30.129,0,39.851-6.483,49.508-34.682,4.393-18.418,2.543-30.6-13.667-37.886,23.454-2.807,28.648-19.251,34.793-36.024,7.762-24.2-4.22-34.225-26.565-34.225m-35.186,87.76-7.726,19.879a8.839,8.839,0,0,1-7.634,5.266H81.37l11.983-30.41,51.512.008C147.951,114.15,149.545,116.5,148.416,119.408Zm19.672-53.1-6.84,17.542a8.76,8.76,0,0,1-7.61,5.234l-50.723-.016,7.927-20.726-7.269-7.348,60.957.046C167.612,61.039,169.21,63.39,168.088,66.305Z"/><path class="cls-2" d="M212.3,38.453c-5.226-7.161-14.884-10.8-28.7-10.8l-151.144.014,34.85,31.277L20.23,178.416s109.686.043,119.3.043c17.012,0,27.066-2.164,34.708-7.475,7.777-5.4,13.155-14.059,18.578-29.9l.065-.184.039-.187c2.593-10.9,2.854-18.68.827-25.232a24.811,24.811,0,0,0-7.954-11.86,34.642,34.642,0,0,0,16.055-11.339c5.392-6.716,8.455-15.154,11.433-23.3l.626-1.737.035-.069.024-.083c3.9-12.143,3.333-21.774-1.671-28.64M175.374,101.9c16.21,7.288,18.06,19.468,13.667,37.886-9.657,28.2-19.379,34.682-49.508,34.682-9.618,0-113.435-.033-113.435-.033L72.046,57.83,42.888,31.664l139.837,0c.3,0,.585-.014.877-.014,22.346,0,34.327,10.024,26.565,34.225C204.023,82.646,198.828,99.09,175.374,101.9Z"/><path class="cls-2" d="M144.865,114.15l-51.512-.008L81.37,144.553h51.686a8.839,8.839,0,0,0,7.634-5.266l7.726-19.879c1.129-2.9-.465-5.258-3.551-5.258m-11.81,26.4-45.815.008,8.838-22.416,48.544.006-7.659,19.7A4.883,4.883,0,0,1,133.056,140.549Z"/><path class="cls-2" d="M164.529,61.039l-60.957-.046,7.269,7.348-7.927,20.726,50.723.016a8.76,8.76,0,0,0,7.61-5.234l6.84-17.542c1.122-2.915-.476-5.267-3.559-5.267M153.638,85.083l-44.911-.008,6.765-17.726L113.158,65l51.127.035-6.762,17.359A4.846,4.846,0,0,1,153.638,85.083Z"/><path class="cls-1" d="M268.38,86.9h16.037c3.925,0,6.7.984,8.527,2.77a7.024,7.024,0,0,1,2.011,5.089v.087c0,3.619-2.055,5.768-4.826,6.97,3.8,1.253,6.208,3.392,6.208,7.639v.088c0,5.359-4.377,8.623-11.834,8.623H268.38Zm18.044,9.64c0-1.74-1.384-2.679-3.93-2.679H276.82v5.5h5.45c2.634,0,4.153-.9,4.153-2.723Zm-2.993,8.895h-6.61v5.759h6.7c2.681,0,4.154-1.025,4.154-2.853v-.1C287.674,106.548,286.335,105.434,283.431,105.434Z"/><path class="cls-1" d="M307.075,102.625v-.1c0-8.969,7.231-16.252,16.88-16.252s16.792,7.188,16.792,16.168v.084c0,8.98-7.236,16.265-16.882,16.265S307.075,111.6,307.075,102.625Zm24.784,0v-.1c0-4.549-3.217-8.438-7.994-8.438s-7.95,3.844-7.95,8.354v.084c0,4.518,3.26,8.443,8.04,8.443C328.689,110.969,331.859,107.131,331.859,102.625Z"/><path class="cls-1" d="M353.485,86.9h8.666v31.264h-8.666Z"/><path class="cls-1" d="M373.745,113.518l4.823-5.76a16.21,16.21,0,0,0,10.139,3.749c2.367,0,3.619-.8,3.619-2.137v-.1c0-1.339-1.027-2.011-5.316-3.035-6.656-1.516-11.791-3.395-11.791-9.781v-.087c0-5.8,4.6-10.006,12.1-10.006,5.316,0,9.468,1.428,12.858,4.158l-4.329,6.118a15.342,15.342,0,0,0-8.754-3.081c-2.1,0-3.126.846-3.126,2.008v.091c0,1.426,1.068,2.052,5.45,3.034,7.143,1.561,11.609,3.881,11.609,9.737v.086c0,6.387-5.046,10.184-12.638,10.184A21.913,21.913,0,0,1,373.745,113.518Z"/><path class="cls-1" d="M413.557,86.9H438.7v7.327H422.13V99h15.007v6.829H422.13v4.961h16.793v7.369H413.557Z"/><path class="cls-1" d="M468.94,113.518l4.819-5.76a16.221,16.221,0,0,0,10.14,3.749c2.366,0,3.619-.8,3.619-2.137v-.1c0-1.339-1.023-2.011-5.313-3.035-6.659-1.516-11.791-3.395-11.791-9.781v-.087c0-5.8,4.6-10.006,12.1-10.006,5.316,0,9.47,1.428,12.862,4.158l-4.331,6.118a15.341,15.341,0,0,0-8.752-3.081c-2.1,0-3.128.846-3.128,2.008v.091c0,1.426,1.071,2.052,5.448,3.034,7.146,1.561,11.614,3.881,11.614,9.737v.086c0,6.387-5.047,10.184-12.642,10.184A21.907,21.907,0,0,1,468.94,113.518Z"/><path class="cls-1" d="M515.849,94.488h-9.335V86.9H533.89v7.588h-9.376v23.676h-8.665Z"/><path class="cls-1" d="M552.533,86.676h8.353L574.2,118.164h-9.289l-2.235-5.629h-12.1l-2.23,5.629h-9.067Zm7.595,19.114-3.483-8.841-3.531,8.841Z"/><path class="cls-1" d="M588.9,94.488h-9.332V86.9h27.377v7.588h-9.378v23.676H588.9Z"/><path class="cls-1" d="M618.263,86.9h25.145v7.327H626.84V99h15v6.829h-15v4.961h16.792v7.369H618.263Z"/><path class="cls-1" d="M675.656,104.452V86.9h8.752v17.366c0,4.518,2.282,6.658,5.763,6.658,3.528,0,5.8-2.052,5.8-6.428V86.9h8.76v17.325c0,10.05-5.767,14.513-14.652,14.513C681.24,118.738,675.656,114.231,675.656,104.452Z"/><path class="cls-1" d="M718.5,86.9h8.085l12.86,16.524V86.9h8.574v31.264h-7.549l-13.4-17.149v17.149H718.5Z"/><path class="cls-1" d="M762.231,86.9H770.9v31.264h-8.667Z"/><path class="cls-1" d="M781.959,86.9h9.646l7.1,19.787L805.852,86.9h9.468l-12.68,31.483H794.6Z"/><path class="cls-1" d="M826.144,86.9h25.141v7.327h-16.57V99h15.009v6.829H834.714v4.961h16.792v7.369H826.144Z"/><path class="cls-1" d="M864.742,86.9h14.781c4.783,0,8.085,1.246,10.185,3.352a9.734,9.734,0,0,1,2.771,7.273v.1a9.9,9.9,0,0,1-6.434,9.64l7.461,10.9h-9.962l-6.295-9.467h-3.842v9.467h-8.667Zm14.426,15c2.906,0,4.646-1.426,4.646-3.705v-.087c0-2.5-1.831-3.751-4.689-3.751h-5.716V101.9Z"/><path class="cls-1" d="M902.723,113.518l4.818-5.76a16.238,16.238,0,0,0,10.145,3.749c2.366,0,3.614-.8,3.614-2.137v-.1c0-1.339-1.028-2.011-5.312-3.035-6.655-1.516-11.795-3.395-11.795-9.781v-.087c0-5.8,4.6-10.006,12.1-10.006a19.66,19.66,0,0,1,12.867,4.158l-4.331,6.118a15.356,15.356,0,0,0-8.754-3.081c-2.1,0-3.131.846-3.131,2.008v.091c0,1.426,1.076,2.052,5.451,3.034,7.146,1.561,11.611,3.881,11.611,9.737v.086c0,6.387-5.047,10.184-12.639,10.184A21.917,21.917,0,0,1,902.723,113.518Z"/><path class="cls-1" d="M942.714,86.9h8.662v31.264h-8.662Z"/><path class="cls-1" d="M972.079,94.488H962.75V86.9h27.375v7.588h-9.379v23.676h-8.667Z"/><path class="cls-1" d="M1011.983,106.461,1000.052,86.9h9.873l6.435,11.391,6.474-11.391h9.691l-11.879,19.431v11.834h-8.662Z"/></svg>