<svg id="Layer_1" data-name="Layer 1" xmlns="http://www.w3.org/2000/svg" viewBox="0 0 1056.216 161.716"><defs><style>.cls-1{fill:#0033a1;}.cls-2{fill:#fff;}.cls-3{fill:#fefefe;}</style></defs><title>boisestate-leftalignedlogo-1color-whiteoutline-blue-pms</title><path class="cls-1" d="M183.6,10.244c-.292,0-.574.008-.877.013l-139.837,0L72.046,36.425,26.1,153.027s103.817.034,113.435.034c30.129,0,39.851-6.483,49.508-34.682,4.393-18.418,2.543-30.6-13.667-37.886,23.454-2.807,28.648-19.251,34.793-36.025,7.762-24.2-4.22-34.224-26.565-34.224M148.416,98l-7.727,19.879a8.839,8.839,0,0,1-7.633,5.266H81.37L93.353,92.738l51.512.008C147.951,92.746,149.545,95.1,148.416,98Zm19.672-53.1-6.84,17.542a8.76,8.76,0,0,1-7.61,5.234l-50.723-.015,7.927-20.726-7.27-7.348,60.957.046C167.612,39.634,169.21,41.986,168.088,44.9Z"/><path class="cls-2" d="M212.3,17.048c-5.226-7.161-14.884-10.795-28.7-10.795L32.457,6.267l34.85,31.277L20.23,157.012s109.685.043,119.3.043c17.012,0,27.067-2.164,34.708-7.475,7.778-5.4,13.155-14.059,18.578-29.9l.066-.184.039-.188c2.593-10.9,2.853-18.679.827-25.232A24.81,24.81,0,0,0,185.8,82.22a34.643,34.643,0,0,0,16.055-11.339c5.391-6.715,8.455-15.154,11.432-23.3l.626-1.738.035-.069.024-.083c3.9-12.143,3.333-21.774-1.671-28.64M175.374,80.493c16.21,7.288,18.06,19.468,13.667,37.886-9.657,28.2-19.379,34.682-49.508,34.682-9.618,0-113.435-.034-113.435-.034l45.948-116.6L42.888,10.259l139.837,0c.3,0,.585-.013.877-.013,22.345,0,34.327,10.024,26.565,34.224C204.022,61.242,198.828,77.686,175.374,80.493Z"/><path class="cls-2" d="M144.865,92.746l-51.512-.008L81.37,123.149h51.686a8.839,8.839,0,0,0,7.633-5.266L148.416,98c1.129-2.9-.465-5.258-3.551-5.258m-11.809,26.4-45.816.008,8.838-22.416,48.544.006-7.659,19.695A4.883,4.883,0,0,1,133.056,119.144Z"/><path class="cls-2" d="M164.529,39.634l-60.957-.046,7.27,7.348-7.927,20.726,50.723.015a8.76,8.76,0,0,0,7.61-5.234l6.84-17.542c1.122-2.915-.476-5.267-3.559-5.267M153.638,63.678l-44.911-.008,6.764-17.725-2.333-2.35,51.127.035-6.762,17.36A4.845,4.845,0,0,1,153.638,63.678Z"/><path class="cls-3" d="M268.38,65.5h16.037c3.925,0,6.7.984,8.527,2.769a7.024,7.024,0,0,1,2.011,5.089v.087c0,3.619-2.055,5.767-4.826,6.97,3.8,1.253,6.208,3.392,6.208,7.638v.088c0,5.359-4.377,8.623-11.834,8.623H268.38Zm18.044,9.639c0-1.74-1.384-2.678-3.93-2.678H276.82v5.5h5.45c2.634,0,4.154-.9,4.154-2.723Zm-2.993,8.894H276.82v5.76h6.7c2.68,0,4.154-1.025,4.154-2.852v-.1C287.674,85.144,286.335,84.029,283.431,84.029Z"/><path class="cls-3" d="M307.075,81.22v-.1c0-8.969,7.232-16.252,16.88-16.252s16.792,7.187,16.792,16.168v.084c0,8.98-7.236,16.265-16.882,16.265S307.075,90.191,307.075,81.22Zm24.784,0v-.1c0-4.549-3.216-8.438-7.994-8.438s-7.95,3.844-7.95,8.354v.084c0,4.517,3.26,8.442,8.04,8.442C328.688,89.564,331.859,85.728,331.859,81.22Z"/><path class="cls-3" d="M353.485,65.5h8.666V96.76h-8.666Z"/><path class="cls-3" d="M373.745,92.113l4.823-5.76A16.21,16.21,0,0,0,388.707,90.1c2.367,0,3.619-.8,3.619-2.137v-.1c0-1.339-1.027-2.009-5.316-3.034-6.657-1.517-11.791-3.395-11.791-9.782v-.087c0-5.8,4.6-10.006,12.1-10.006,5.317,0,9.468,1.428,12.859,4.159l-4.329,6.118a15.342,15.342,0,0,0-8.754-3.081c-2.1,0-3.126.846-3.126,2.008v.09c0,1.426,1.068,2.052,5.45,3.035,7.142,1.56,11.609,3.881,11.609,9.738v.085c0,6.387-5.046,10.184-12.637,10.184A21.91,21.91,0,0,1,373.745,92.113Z"/><path class="cls-3" d="M413.557,65.5H438.7v7.327H422.13V77.6h15.007v6.829H422.13v4.962h16.793V96.76H413.557Z"/><path class="cls-3" d="M468.939,92.113l4.82-5.76A16.218,16.218,0,0,0,483.9,90.1c2.367,0,3.62-.8,3.62-2.137v-.1c0-1.339-1.024-2.009-5.314-3.034-6.659-1.517-11.791-3.395-11.791-9.782v-.087c0-5.8,4.6-10.006,12.1-10.006,5.316,0,9.469,1.428,12.862,4.159l-4.331,6.118a15.341,15.341,0,0,0-8.752-3.081c-2.1,0-3.128.846-3.128,2.008v.09c0,1.426,1.071,2.052,5.448,3.035,7.147,1.56,11.615,3.881,11.615,9.738v.085c0,6.387-5.047,10.184-12.642,10.184A21.906,21.906,0,0,1,468.939,92.113Z"/><path class="cls-3" d="M515.849,73.083h-9.335V65.5H533.89v7.587h-9.376V96.76h-8.665Z"/><path class="cls-3" d="M552.533,65.272h8.354L574.2,96.76h-9.289l-2.235-5.629h-12.1l-2.23,5.629h-9.068Zm7.6,19.114-3.483-8.841-3.532,8.841Z"/><path class="cls-3" d="M588.9,73.083h-9.332V65.5h27.377v7.587h-9.378V96.76H588.9Z"/><path class="cls-3" d="M618.263,65.5h25.145v7.327H626.84V77.6h15v6.829h-15v4.962h16.792V96.76H618.263Z"/><path class="cls-3" d="M675.656,83.047V65.5h8.752V82.862c0,4.517,2.282,6.657,5.763,6.657,3.528,0,5.8-2.052,5.8-6.428V65.5h8.759V82.821c0,10.05-5.766,14.513-14.652,14.513C681.24,97.334,675.656,92.826,675.656,83.047Z"/><path class="cls-3" d="M718.5,65.5h8.085l12.86,16.523V65.5h8.575V96.76h-7.549l-13.4-17.149V96.76H718.5Z"/><path class="cls-3" d="M762.231,65.5H770.9V96.76h-8.667Z"/><path class="cls-3" d="M781.959,65.5h9.646l7.1,19.786L805.852,65.5h9.467L802.64,96.979H794.6Z"/><path class="cls-3" d="M826.144,65.5h25.14v7.327h-16.57V77.6h15.009v6.829H834.714v4.962h16.792V96.76H826.144Z"/><path class="cls-3" d="M864.742,65.5h14.781c4.784,0,8.085,1.246,10.186,3.351a9.735,9.735,0,0,1,2.771,7.274v.095a9.9,9.9,0,0,1-6.433,9.641l7.461,10.9h-9.962l-6.3-9.467h-3.842V96.76h-8.667Zm14.426,15c2.906,0,4.646-1.426,4.646-3.7V76.7c0-2.5-1.831-3.751-4.689-3.751h-5.716V80.5Z"/><path class="cls-3" d="M902.723,92.113l4.818-5.76A16.236,16.236,0,0,0,917.686,90.1c2.366,0,3.614-.8,3.614-2.137v-.1c0-1.339-1.029-2.009-5.313-3.034-6.655-1.517-11.795-3.395-11.795-9.782v-.087c0-5.8,4.6-10.006,12.1-10.006a19.657,19.657,0,0,1,12.867,4.159l-4.331,6.118a15.352,15.352,0,0,0-8.754-3.081c-2.1,0-3.131.846-3.131,2.008v.09c0,1.426,1.076,2.052,5.451,3.035,7.147,1.56,11.612,3.881,11.612,9.738v.085c0,6.387-5.047,10.184-12.639,10.184A21.912,21.912,0,0,1,902.723,92.113Z"/><path class="cls-3" d="M942.714,65.5h8.662V96.76h-8.662Z"/><path class="cls-3" d="M972.079,73.083H962.75V65.5h27.375v7.587h-9.379V96.76h-8.667Z"/><path class="cls-3" d="M1011.983,85.057,1000.052,65.5h9.873l6.434,11.39,6.474-11.39h9.691l-11.879,19.43V96.76h-8.662Z"/></svg>