<?xml version="1.0" encoding="utf-8"?>
<!-- Generator: Adobe Illustrator 22.0.1, SVG Export Plug-In . SVG Version: 6.00 Build 0)  -->
<svg version="1.1" id="Layer_1" xmlns="http://www.w3.org/2000/svg" xmlns:xlink="http://www.w3.org/1999/xlink" x="0px" y="0px"
	 viewBox="0 0 203.5 36" style="enable-background:new 0 0 203.5 36;" xml:space="preserve">
<style type="text/css">
	.st0{fill:#0033A1;}
	.st1{fill:#FFFFFF;}
	.st2{fill:#FEFEFE;}
</style>
<g>
	<path class="st0" d="M34.4,4.2c-0.1,0-0.1,0-0.2,0c-1.1,0-27.5,0-27.5,0l5.7,5.1l-9,22.9c0,0,20.4,0,22.3,0c5.9,0,7.8-1.3,9.7-6.8
		c0.9-3.6,0.5-6-2.7-7.4c4.6-0.6,5.6-3.8,6.8-7.1C41.1,6.2,38.8,4.2,34.4,4.2 M27.5,21.5L26,25.4c-0.2,0.6-0.9,1-1.5,1H14.3l2.4-6
		l10.1,0C27.4,20.4,27.7,20.9,27.5,21.5z M31.4,11L30,14.5c-0.2,0.6-0.9,1-1.5,1l-10,0l1.6-4.1L18.7,10l12,0
		C31.3,10,31.6,10.4,31.4,11z"/>
	<path class="st1" d="M40,5.5c-1-1.4-2.9-2.1-5.6-2.1c-0.1,0-29.7,0-29.7,0l6.9,6.1L2.3,33.1c0,0,21.6,0,23.5,0
		c3.3,0,5.3-0.4,6.8-1.5c1.5-1.1,2.6-2.8,3.7-5.9l0,0l0,0c0.5-2.1,0.6-3.7,0.2-5c-0.3-0.9-0.8-1.7-1.6-2.3c1.3-0.4,2.3-1.2,3.2-2.2
		c1.1-1.3,1.7-3,2.2-4.6l0.1-0.3l0,0l0,0C41.1,8.8,41,6.9,40,5.5 M32.8,18c3.2,1.4,3.6,3.8,2.7,7.4c-1.9,5.5-3.8,6.8-9.7,6.8
		c-1.9,0-22.3,0-22.3,0l9-22.9L6.7,4.2c0,0,26.4,0,27.5,0c0.1,0,0.1,0,0.2,0c4.4,0,6.7,2,5.2,6.7C38.4,14.2,37.4,17.5,32.8,18z"/>
	<path class="st1" d="M26.8,20.4l-10.1,0l-2.4,6h10.2c0.6,0,1.3-0.5,1.5-1l1.5-3.9C27.7,20.9,27.4,20.4,26.8,20.4 M24.5,25.6l-9,0
		l1.7-4.4l9.5,0l-1.5,3.9C25.1,25.4,24.7,25.6,24.5,25.6z"/>
	<path class="st1" d="M30.7,10l-12,0l1.4,1.4l-1.6,4.1l10,0c0.6,0,1.3-0.5,1.5-1l1.3-3.4C31.6,10.4,31.3,10,30.7,10 M28.5,14.7
		l-8.8,0l1.3-3.5l-0.5-0.5l10.1,0l-1.3,3.4C29.2,14.4,28.8,14.7,28.5,14.7z"/>
</g>
<g>
	<path class="st2" d="M51.1,15.1h3.2c0.8,0,1.3,0.2,1.7,0.5c0.2,0.3,0.4,0.6,0.4,1v0c0,0.7-0.4,1.1-0.9,1.4c0.7,0.2,1.2,0.7,1.2,1.5
		v0c0,1.1-0.9,1.7-2.3,1.7h-3.2V15.1z M54.6,17c0-0.3-0.3-0.5-0.8-0.5h-1.1v1.1h1.1C54.3,17.5,54.6,17.3,54.6,17L54.6,17z M54,18.7
		h-1.3v1.1H54c0.5,0,0.8-0.2,0.8-0.6v0C54.9,18.9,54.6,18.7,54,18.7z"/>
	<path class="st2" d="M58.7,18.2L58.7,18.2c0-1.8,1.4-3.2,3.3-3.2c1.9,0,3.3,1.4,3.3,3.2v0c0,1.8-1.4,3.2-3.3,3.2
		C60.1,21.3,58.7,19.9,58.7,18.2z M63.5,18.2L63.5,18.2c0-0.9-0.6-1.7-1.6-1.7c-0.9,0-1.6,0.8-1.6,1.6v0c0,0.9,0.6,1.7,1.6,1.7
		C62.9,19.8,63.5,19,63.5,18.2z"/>
	<path class="st2" d="M67.8,15.1h1.7v6.1h-1.7V15.1z"/>
	<path class="st2" d="M71.8,20.3l0.9-1.1c0.6,0.5,1.3,0.7,2,0.7c0.5,0,0.7-0.2,0.7-0.4v0c0-0.3-0.2-0.4-1-0.6
		c-1.3-0.3-2.3-0.7-2.3-1.9v0c0-1.1,0.9-2,2.4-2c1,0,1.9,0.3,2.5,0.8L76.1,17c-0.6-0.4-1.2-0.6-1.7-0.6c-0.4,0-0.6,0.2-0.6,0.4v0
		c0,0.3,0.2,0.4,1.1,0.6c1.4,0.3,2.3,0.8,2.3,1.9v0c0,1.3-1,2-2.5,2C73.6,21.3,72.5,21,71.8,20.3z"/>
	<path class="st2" d="M79.6,15.1h4.9v1.4h-3.3v0.9h3v1.3h-3v1h3.3v1.4h-5V15.1z"/>
	<path class="st2" d="M90.5,20.3l0.9-1.1c0.6,0.5,1.3,0.7,2,0.7c0.5,0,0.7-0.2,0.7-0.4v0c0-0.3-0.2-0.4-1-0.6
		c-1.3-0.3-2.3-0.7-2.3-1.9v0c0-1.1,0.9-2,2.4-2c1,0,1.9,0.3,2.5,0.8L94.8,17c-0.6-0.4-1.2-0.6-1.7-0.6c-0.4,0-0.6,0.2-0.6,0.4v0
		c0,0.3,0.2,0.4,1.1,0.6c1.4,0.3,2.3,0.8,2.3,1.9v0c0,1.3-1,2-2.5,2C92.3,21.3,91.3,21,90.5,20.3z"/>
	<path class="st2" d="M99.7,16.6h-1.8v-1.5h5.4v1.5h-1.8v4.7h-1.7V16.6z"/>
	<path class="st2" d="M106.9,15h1.6l2.6,6.2h-1.8l-0.4-1.1h-2.4l-0.4,1.1h-1.8L106.9,15z M108.4,18.8l-0.7-1.7l-0.7,1.7H108.4z"/>
	<path class="st2" d="M114.1,16.6h-1.8v-1.5h5.4v1.5h-1.8v4.7h-1.7V16.6z"/>
	<path class="st2" d="M119.9,15.1h4.9v1.4h-3.3v0.9h2.9v1.3h-2.9v1h3.3v1.4h-5V15.1z"/>
	<path class="st2" d="M131.1,18.5v-3.5h1.7v3.4c0,0.9,0.4,1.3,1.1,1.3c0.7,0,1.1-0.4,1.1-1.3v-3.5h1.7v3.4c0,2-1.1,2.9-2.9,2.9
		C132.2,21.3,131.1,20.4,131.1,18.5z"/>
	<path class="st2" d="M139.6,15.1h1.6l2.5,3.2v-3.2h1.7v6.1h-1.5l-2.6-3.4v3.4h-1.7V15.1z"/>
	<path class="st2" d="M148.2,15.1h1.7v6.1h-1.7V15.1z"/>
	<path class="st2" d="M152,15.1h1.9l1.4,3.9l1.4-3.9h1.9l-2.5,6.2h-1.6L152,15.1z"/>
	<path class="st2" d="M160.7,15.1h4.9v1.4h-3.3v0.9h3v1.3h-3v1h3.3v1.4h-5V15.1z"/>
	<path class="st2" d="M168.3,15.1h2.9c0.9,0,1.6,0.2,2,0.7c0.4,0.4,0.5,0.8,0.5,1.4v0c0,0.9-0.5,1.6-1.3,1.9l1.5,2.1h-2l-1.2-1.9
		H170v1.9h-1.7V15.1z M171.2,18c0.6,0,0.9-0.3,0.9-0.7v0c0-0.5-0.4-0.7-0.9-0.7H170V18H171.2z"/>
	<path class="st2" d="M175.8,20.3l0.9-1.1c0.6,0.5,1.3,0.7,2,0.7c0.5,0,0.7-0.2,0.7-0.4v0c0-0.3-0.2-0.4-1-0.6
		c-1.3-0.3-2.3-0.7-2.3-1.9v0c0-1.1,0.9-2,2.4-2c1,0,1.9,0.3,2.5,0.8l-0.9,1.2c-0.6-0.4-1.2-0.6-1.7-0.6c-0.4,0-0.6,0.2-0.6,0.4v0
		c0,0.3,0.2,0.4,1.1,0.6c1.4,0.3,2.3,0.8,2.3,1.9v0c0,1.3-1,2-2.5,2C177.6,21.3,176.5,21,175.8,20.3z"/>
	<path class="st2" d="M183.6,15.1h1.7v6.1h-1.7V15.1z"/>
	<path class="st2" d="M189.4,16.6h-1.8v-1.5h5.4v1.5h-1.8v4.7h-1.7V16.6z"/>
	<path class="st2" d="M197.3,18.9l-2.3-3.8h1.9l1.3,2.2l1.3-2.2h1.9l-2.3,3.8v2.3h-1.7V18.9z"/>
</g>
</svg>
